<?xml version="1.0" encoding="utf-8"?>
<!-- Generator: Adobe Illustrator 18.0.0, SVG Export Plug-In . SVG Version: 6.00 Build 0)  -->
<!DOCTYPE svg PUBLIC "-//W3C//DTD SVG 1.1//EN" "http://www.w3.org/Graphics/SVG/1.1/DTD/svg11.dtd">
<svg version="1.1" id="Layer_1" xmlns="http://www.w3.org/2000/svg" xmlns:xlink="http://www.w3.org/1999/xlink" x="0px" y="0px"
	 viewBox="546.5 0 507 400" enable-background="new 546.5 0 507 400" xml:space="preserve">
<g>
	<path fill="#FFFFFF" d="M1052.2,388.6L926.4,194.2l114.3-182.8c3.4-5.7,0-11.4-5.7-11.4h-62.9c-5.3,0-12.7,5-16.4,10.3l-72.1,117.1
		v132.5l78.4,122l4.4,6.8c4,5.7,11.4,11.4,17.1,11.4h62.9C1052.2,400,1055.5,394.3,1052.2,388.6z"/>
	<path fill="#FFFFFF" d="M842,195l41.7-67.6v-10.2C883.6,51.4,832.2,0,755.1,0H557.9c-5.8,0-11.4,5.7-11.4,11.4v377.1
		c0,5.7,5.7,11.4,11.4,11.4h197.2c77.1,0,128.5-51.4,128.5-117.1v-23L842,195z M806.5,268.6c0,42.8-26.3,68.6-62.9,68.6h-120V62.9
		h114.3c42.8,0,68.6,25.7,68.6,62.9V268.6z"/>
</g>
</svg>
